<?xml version="1.0" encoding="UTF-8"?>
<svg xmlns="http://www.w3.org/2000/svg" viewBox="0 0 512 512" width="512" height="512">
<path d="M256.23 64.57C260.9 63.97 265.8 64.95 270.49 65C287.64 65.19 304.42 67.79 321.09 70.89C376.58 81.21 431.5 106.6 474.6 144.24C485.47 153.73 496.07 163.61 505.8 174.29C508.16 176.89 511 184.81 511.92 185.58C511.92 189.47 511.92 193.36 511.92 197.24C510.74 198.04 509.24 203.76 507.91 205.61C501.94 213.89 491.37 219.36 480.95 216.83C469.49 214.04 461.76 203.14 453.65 195.14C440.98 182.63 426.37 172.09 411.7 162.22C365.73 131.33 311.27 117.94 256.23 116.23C256.23 99.01 256.23 81.79 256.23 64.57ZM256.28 163.12C269.23 161.35 285.74 165 298.55 166.9C336.4 172.51 381.34 192.95 410.22 218.91C424.08 231.37 449.29 248.82 440.77 270.38C435.38 284.03 419.91 290.11 406.45 284.9C399.81 282.33 395.42 276.17 390.65 271.2C383.77 264.03 375.83 256.82 367.6 251.26C336.26 230.13 304.9 217.94 266.99 214.99C263.4 214.79 259.82 214.59 256.23 214.39C256.25 197.3 256.26 180.21 256.28 163.12ZM256.23 261.44C263.87 260.53 274.27 262.32 281.77 263.87C308.99 269.49 333.69 281.18 354.13 300.73C365.23 311.35 377.3 324.08 370.79 340.58C365.56 353.8 349.53 360.4 336.54 354.76C326.3 350.31 320.69 338.84 311.71 332.38C294.97 320.32 277.01 313.85 256.23 313.11C256.23 295.88 256.23 278.66 256.23 261.44ZM262.87 360.38C265.34 361.13 267.93 361.26 270.36 362.13C282.04 366.31 292.25 375.91 296.79 387.49C307.72 415.31 286.64 447.87 256.23 447.4C256.31 418.4 256.39 389.4 256.47 360.4C258.61 360.43 261.01 361.25 262.87 360.38Z" fill="#ff9100" fill-rule="evenodd" stroke="#ff9100" stroke-width="0.25" stroke-linejoin="round"/>
<path d="M256.23 64.57C256.23 81.79 256.23 99.01 256.23 116.23C242.53 114.85 224.56 118.05 210.85 119.93C167.06 125.95 125.92 144.53 89.63 169.3C77.33 177.69 65.84 187.63 55.18 198.03C48.71 204.34 42.74 213.04 33.81 215.85C23.06 219.23 10.72 215.27 4.41 205.78C2.87 203.46 1.5 197.67 0.08 196.34C0.08 193.06 0.08 189.77 0.08 186.49C1.26 185.05 1.38 182.66 2.11 180.91C3.24 178.17 5.18 175.56 7.18 173.39C54.63 122.1 116.59 87.7 184.06 72.18C200.95 68.3 218.58 66.24 235.91 65.12C242.63 64.69 249.56 65.46 256.23 64.57ZM256.28 163.12C256.26 180.21 256.25 197.3 256.23 214.39C259.82 214.59 263.4 214.79 266.99 214.99C255.22 215.87 243.53 214.59 231.73 216.19C203.67 220.01 176.68 229.89 152.89 245.25C142.17 252.18 132.38 260.46 123.15 269.26C117.5 274.66 112.87 281.71 105.44 284.8C92.09 290.36 76.24 283.49 71.23 269.92C63.36 248.57 88.18 230.99 102.14 218.8C133.8 191.14 174.02 174.45 214.79 166.77C227.53 164.37 243.32 161.95 256.28 163.12ZM256.23 261.44C256.23 278.66 256.23 295.88 256.23 313.11C236.05 312.71 216.05 320.1 200.19 332.3C191.52 338.96 185 350.59 175 354.75C161.85 360.22 146.34 353.21 141.21 340.14C134.91 324.1 147.08 310.92 157.98 300.82C176.48 283.67 199.05 270.55 223.75 265.13C229.97 263.76 236.52 262.53 242.89 262.07C247.23 261.76 252 262.41 256.23 261.44ZM262.87 360.38C261.01 361.25 258.61 360.43 256.47 360.4C256.39 389.4 256.31 418.4 256.23 447.4C250.13 446.27 244.52 446.31 238.69 443.8C222.99 437.03 212.32 420.84 212.25 403.76C212.18 382.97 227.96 364.08 248.46 360.8C252.78 360.1 258.67 358.82 262.87 360.38Z" fill="#fdba12" fill-rule="evenodd" stroke="#fdba12" stroke-width="0.25" stroke-linejoin="round"/>
</svg>